<svg width="21" height="14" viewBox="0 0 21 14" fill="none" xmlns="http://www.w3.org/2000/svg">
<path fill-rule="evenodd" clip-rule="evenodd" d="M20.1152 2.03295C20.1152 1.3999 19.6376 0.886719 19.0485 0.886719H17.9818C17.3927 0.886719 16.9152 1.3999 16.9152 2.03295V11.9669C16.9152 12.5999 17.3927 13.1131 17.9818 13.1131H19.0485C19.6376 13.1131 20.1152 12.5999 20.1152 11.9669V2.03295ZM12.681 3.332H13.7477C14.3368 3.332 14.8144 3.8575 14.8144 4.50574V11.9394C14.8144 12.5876 14.3368 13.1131 13.7477 13.1131H12.681C12.0919 13.1131 11.6144 12.5876 11.6144 11.9394V4.50574C11.6144 3.8575 12.0919 3.332 12.681 3.332ZM8.34928 5.98105H7.28261C6.69351 5.98105 6.21594 6.51324 6.21594 7.16973V11.9244C6.21594 12.5809 6.69351 13.1131 7.28261 13.1131H8.34928C8.93838 13.1131 9.41594 12.5809 9.41594 11.9244V7.16973C9.41594 6.51324 8.93838 5.98105 8.34928 5.98105ZM3.04849 8.42634H1.98183C1.39272 8.42634 0.915161 8.95093 0.915161 9.59804V11.9414C0.915161 12.5885 1.39272 13.1131 1.98183 13.1131H3.04849C3.6376 13.1131 4.11516 12.5885 4.11516 11.9414V9.59804C4.11516 8.95093 3.6376 8.42634 3.04849 8.42634Z" fill="black"/>
</svg>
