<svg width="21" height="14" viewBox="0 0 21 14" fill="none" xmlns="http://www.w3.org/2000/svg">
<path fill-rule="evenodd" clip-rule="evenodd" d="M20.1152 2.03307C20.1152 1.40002 19.6376 0.886841 19.0485 0.886841H17.9818C17.3927 0.886841 16.9152 1.40002 16.9152 2.03307V11.967C16.9152 12.6001 17.3927 13.1133 17.9818 13.1133H19.0485C19.6376 13.1133 20.1152 12.6001 20.1152 11.967V2.03307ZM12.681 3.33212H13.7477C14.3368 3.33212 14.8144 3.85762 14.8144 4.50586V11.9395C14.8144 12.5878 14.3368 13.1133 13.7477 13.1133H12.681C12.0919 13.1133 11.6144 12.5878 11.6144 11.9395V4.50586C11.6144 3.85762 12.0919 3.33212 12.681 3.33212ZM8.34928 5.98117H7.28261C6.69351 5.98117 6.21594 6.51336 6.21594 7.16985V11.9246C6.21594 12.5811 6.69351 13.1132 7.28261 13.1132H8.34928C8.93838 13.1132 9.41594 12.5811 9.41594 11.9246V7.16985C9.41594 6.51336 8.93838 5.98117 8.34928 5.98117ZM3.04849 8.42646H1.98183C1.39272 8.42646 0.915161 8.95105 0.915161 9.59816V11.9416C0.915161 12.5887 1.39272 13.1133 1.98183 13.1133H3.04849C3.6376 13.1133 4.11516 12.5887 4.11516 11.9416V9.59816C4.11516 8.95105 3.6376 8.42646 3.04849 8.42646Z" fill="black"/>
</svg>
