<svg width="24" height="24" viewBox="0 0 24 24" fill="none" xmlns="http://www.w3.org/2000/svg">
<path fill-rule="evenodd" clip-rule="evenodd" d="M16.5 7C16.5 9.48528 14.4853 11.5 12 11.5C9.51472 11.5 7.5 9.48528 7.5 7C7.5 4.51472 9.51472 2.5 12 2.5C14.4853 2.5 16.5 4.51472 16.5 7ZM16.6333 21.0696C15.3399 21.4184 13.666 21.5 12 21.5C10.334 21.5 8.66009 21.4184 7.36669 21.0696C6.71966 20.895 6.03239 20.6195 5.48481 20.1413C4.88493 19.6174 4.5 18.8854 4.5 18C4.5 17.1936 4.81838 16.4478 5.22578 15.8405C5.64222 15.2196 6.21251 14.6494 6.87275 14.1673C8.19064 13.2049 9.99584 12.5 12 12.5C14.0042 12.5 15.8094 13.2049 17.1273 14.1673C17.7875 14.6494 18.3578 15.2196 18.7742 15.8405C19.1816 16.4478 19.5 17.1936 19.5 18C19.5 18.8854 19.1151 19.6174 18.5152 20.1413C17.9676 20.6195 17.2803 20.895 16.6333 21.0696ZM12 10C13.6569 10 15 8.65685 15 7C15 5.34315 13.6569 4 12 4C10.3431 4 9 5.34315 9 7C9 8.65685 10.3431 10 12 10ZM12 20C15.3137 20 18 19.6569 18 18C18 16.3431 15.3137 14 12 14C8.68629 14 6 16.3431 6 18C6 19.6569 8.68629 20 12 20Z" fill="#4F4944"/>
</svg>
