<svg width="20" height="20" viewBox="0 0 20 20" fill="none" xmlns="http://www.w3.org/2000/svg">
<path d="M12.078 4.02502C12.4605 3.65833 13.0806 3.65832 13.4631 4.02502C13.8456 4.39171 13.8456 4.98623 13.4631 5.35292L8.61547 10.0004L13.4624 14.6471C13.8449 15.0138 13.8449 15.6083 13.4624 15.975C13.0799 16.3417 12.4598 16.3417 12.0773 15.975L6.55473 10.6806C6.55033 10.6765 6.54407 10.6708 6.53757 10.6645C6.48809 10.617 6.44395 10.5645 6.40676 10.5093C6.16102 10.1454 6.20405 9.65455 6.53686 9.33549C6.54896 9.32389 6.56164 9.31232 6.5749 9.30089L12.078 4.02502Z" fill="#C85C50"/>
</svg>
