<svg width="25" height="24" viewBox="0 0 25 24" fill="none" xmlns="http://www.w3.org/2000/svg">
<path fill-rule="evenodd" clip-rule="evenodd" d="M8.74545 5.48497C8.94544 5.54524 9.18514 5.58269 9.59239 5.6412L9.73665 5.66184C9.86092 5.67959 9.96563 5.69455 10.0523 5.70765C10.2408 5.73615 10.3437 5.75583 10.3763 5.77629C10.5412 5.87984 10.5412 6.12016 10.3763 6.22371C10.3437 6.24417 10.2408 6.26385 10.0523 6.29235C9.96569 6.30544 9.86105 6.32039 9.73691 6.33812L9.59239 6.3588C9.18514 6.41731 8.94544 6.45476 8.74545 6.51503C8.72254 6.52193 8.70015 6.52914 8.67809 6.53671C7.90701 6.80126 7.30126 7.40701 7.03671 8.17809C7.02914 8.20015 7.02193 8.22254 7.01503 8.24545C6.95476 8.44544 6.91731 8.68514 6.8588 9.09239L6.83815 9.23668C6.8204 9.36093 6.80545 9.46563 6.79235 9.55226C6.76385 9.74082 6.74417 9.84374 6.72371 9.87632C6.62016 10.0412 6.37984 10.0412 6.27629 9.87632C6.25583 9.84374 6.23615 9.74082 6.20765 9.55226C6.19455 9.46563 6.17959 9.36092 6.16184 9.23665L6.1412 9.09239C6.08269 8.68514 6.04524 8.44544 5.98497 8.24545C5.97807 8.22254 5.97086 8.20015 5.9633 8.17809C5.69874 7.40701 5.09299 6.80126 4.32191 6.53671C4.29985 6.52914 4.27746 6.52193 4.25455 6.51503C4.05456 6.45476 3.81486 6.41731 3.40761 6.3588L3.26332 6.33815C3.13907 6.3204 3.03437 6.30545 2.94774 6.29235C2.75918 6.26385 2.65626 6.24417 2.62368 6.22371C2.45877 6.12016 2.45877 5.87984 2.62368 5.77629C2.65626 5.75583 2.75918 5.73615 2.94774 5.70765C3.03437 5.69455 3.13908 5.6796 3.26334 5.66184L3.40761 5.6412C3.81486 5.58269 4.05456 5.54524 4.25455 5.48497C4.27746 5.47807 4.29985 5.47086 4.32191 5.4633C5.09299 5.19874 5.69874 4.59299 5.9633 3.82191C5.97086 3.79985 5.97807 3.77746 5.98497 3.75455C6.04524 3.55456 6.08269 3.31486 6.1412 2.90761L6.16184 2.76335C6.17959 2.63909 6.19455 2.53437 6.20765 2.44774C6.23615 2.25918 6.25583 2.15626 6.27629 2.12368C6.37984 1.95877 6.62016 1.95877 6.72371 2.12368C6.74417 2.15626 6.76385 2.25918 6.79235 2.44774C6.80544 2.5343 6.82038 2.63894 6.83812 2.76307L6.8588 2.90761C6.91731 3.31486 6.95476 3.55456 7.01503 3.75455C7.02193 3.77746 7.02914 3.79985 7.03671 3.82191C7.30126 4.59299 7.90701 5.19874 8.67809 5.4633C8.70015 5.47086 8.72254 5.47807 8.74545 5.48497ZM6.5 4.97667C6.76917 5.3827 7.1173 5.73083 7.52333 6C7.1173 6.26917 6.76917 6.6173 6.5 7.02333C6.23083 6.6173 5.8827 6.26917 5.47667 6C5.8827 5.73083 6.23083 5.3827 6.5 4.97667Z" fill="#C85C50"/>
<path fill-rule="evenodd" clip-rule="evenodd" d="M20.2379 13.3616C20.3746 13.3812 20.4966 13.399 20.6045 13.4153C20.9816 13.4723 21.1875 13.5117 21.2526 13.5526C21.5825 13.7597 21.5825 14.2403 21.2526 14.4474C21.1875 14.4883 20.9816 14.5277 20.6045 14.5847C20.4966 14.601 20.3746 14.6188 20.2379 14.6384L19.776 14.7045C19.6447 14.7233 19.5218 14.741 19.4063 14.758C18.6721 14.8656 18.2394 14.9419 17.8562 15.0734C16.314 15.6025 15.1025 16.814 14.5734 18.3562C14.4419 18.7394 14.3656 19.1721 14.258 19.9063C14.241 20.0218 14.2233 20.1447 14.2045 20.276L14.1384 20.7379C14.1188 20.8746 14.101 20.9966 14.0847 21.1045C14.0277 21.4816 13.9883 21.6875 13.9474 21.7526C13.7403 22.0825 13.2597 22.0825 13.0526 21.7526C13.0117 21.6875 12.9723 21.4816 12.9153 21.1045C12.899 20.9966 12.8812 20.8746 12.8616 20.7379L12.7955 20.276C12.7767 20.1447 12.759 20.0218 12.742 19.9063C12.6344 19.1721 12.5581 18.7394 12.4266 18.3562C11.8975 16.814 10.686 15.6025 9.14382 15.0734C8.76064 14.9419 8.32786 14.8656 7.59368 14.758C7.47822 14.741 7.35531 14.7233 7.22396 14.7045L6.7621 14.6384C6.62539 14.6188 6.50342 14.601 6.39549 14.5847C6.01837 14.5277 5.81252 14.4883 5.74737 14.4474C5.41754 14.2403 5.41754 13.7597 5.74737 13.5526C5.81252 13.5117 6.01837 13.4723 6.39549 13.4153C6.50342 13.399 6.62539 13.3812 6.7621 13.3616L7.22396 13.2955C7.35531 13.2767 7.47822 13.259 7.59368 13.242C8.32786 13.1344 8.76064 13.0581 9.14382 12.9266C10.686 12.3975 11.8975 11.186 12.4266 9.64382C12.5581 9.26064 12.6344 8.82786 12.742 8.09368C12.759 7.97822 12.7767 7.85531 12.7955 7.72396L12.8616 7.2621C12.8812 7.12539 12.899 7.00342 12.9153 6.89549C12.9723 6.51837 13.0117 6.31252 13.0526 6.24737C13.2597 5.91754 13.7403 5.91754 13.9474 6.24737C13.9883 6.31252 14.0277 6.51837 14.0847 6.89549C14.101 7.00342 14.1188 7.12539 14.1384 7.2621L14.2045 7.72396C14.2233 7.85531 14.241 7.97822 14.258 8.09368C14.3656 8.82786 14.4419 9.26064 14.5734 9.64382C15.1025 11.186 16.314 12.3975 17.8562 12.9266C18.2394 13.0581 18.6721 13.1344 19.4063 13.242C19.5218 13.259 19.6447 13.2767 19.776 13.2955L20.2379 13.3616ZM13.5 10.9558C14.157 12.2738 15.2263 13.343 16.5442 14C15.2263 14.657 14.157 15.7263 13.5 17.0442C12.843 15.7263 11.7738 14.657 10.4558 14C11.7738 13.343 12.843 12.2738 13.5 10.9558Z" fill="#C85C50"/>
</svg>
