<svg width="16" height="16" viewBox="0 0 16 16" fill="none" xmlns="http://www.w3.org/2000/svg">
<path d="M6.33758 3.22002C6.03159 2.92667 5.53549 2.92666 5.2295 3.22001C4.9235 3.51337 4.9235 3.98899 5.22949 4.28234L9.10762 8.00031L5.2301 11.7177C4.92412 12.0111 4.92411 12.4866 5.2301 12.78C5.53608 13.0733 6.0322 13.0733 6.33818 12.78L10.7562 8.54444C10.7597 8.54123 10.7647 8.53662 10.7699 8.53164C10.8095 8.49359 10.8448 8.45157 10.8746 8.40742C11.0712 8.11629 11.0368 7.72364 10.7705 7.46839C10.7608 7.45911 10.7507 7.44985 10.7401 7.44071L6.33758 3.22002Z" fill="white"/>
</svg>
