<svg width="25" height="24" viewBox="0 0 25 24" fill="none" xmlns="http://www.w3.org/2000/svg">
<path fill-rule="evenodd" clip-rule="evenodd" d="M6.03033 2.21967C5.73744 1.92678 5.26256 1.92678 4.96967 2.21967C4.67678 2.51256 4.67678 2.98744 4.96967 3.28033L7.90399 6.21465C7.02496 7.32323 6.5 8.72531 6.5 10.25C6.5 13.8399 9.41015 16.75 13 16.75C14.5247 16.75 15.9268 16.225 17.0354 15.346L20.1725 18.4831C20.4654 18.776 20.9402 18.776 21.2331 18.4831C21.526 18.1902 21.526 17.7154 21.2331 17.4225L18.096 14.2853C18.975 13.1768 19.5 11.7747 19.5 10.25C19.5 6.66015 16.5899 3.75 13 3.75C11.4753 3.75 10.0732 4.27496 8.96465 5.15399L6.03033 2.21967ZM8 10.25C8 9.13986 8.36179 8.11422 8.9739 7.28456C9.27228 6.88014 9.63014 6.52228 10.0346 6.2239C10.8642 5.61179 11.8899 5.25 13 5.25C15.7614 5.25 18 7.48858 18 10.25C18 11.3601 17.6382 12.3858 17.0261 13.2154C16.7277 13.6199 16.3699 13.9777 15.9654 14.2761C15.1358 14.8882 14.1101 15.25 13 15.25C10.2386 15.25 8 13.0114 8 10.25ZM19.1663 17.4773C17.6849 18.7426 15.8097 19.5603 13.75 19.7212V20.75H17C17.4142 20.75 17.75 21.0858 17.75 21.5C17.75 21.9142 17.4142 22.25 17 22.25H9C8.58579 22.25 8.25 21.9142 8.25 21.5C8.25 21.0858 8.58579 20.75 9 20.75H12.25V19.7212C7.35389 19.3388 3.5 15.2446 3.5 10.2503C3.5 7.89696 4.35573 5.74345 5.77299 4.08398L6.83758 5.14857C5.68988 6.53332 5 8.31126 5 10.2503C5 14.6686 8.58172 18.2503 13 18.2503C14.9391 18.2503 16.717 17.5605 18.1018 16.4128L19.1663 17.4773Z" fill="#C85C50"/>
</svg>
