<svg width="25" height="24" viewBox="0 0 25 24" fill="none" xmlns="http://www.w3.org/2000/svg">
<path fill-rule="evenodd" clip-rule="evenodd" d="M17 7C17 9.48528 14.9853 11.5 12.5 11.5C10.0147 11.5 8 9.48528 8 7C8 4.51472 10.0147 2.5 12.5 2.5C14.9853 2.5 17 4.51472 17 7ZM17.1333 21.0696C15.8399 21.4184 14.166 21.5 12.5 21.5C10.834 21.5 9.16009 21.4184 7.86669 21.0696C7.21966 20.895 6.53239 20.6195 5.98481 20.1413C5.38493 19.6174 5 18.8854 5 18C5 17.1936 5.31838 16.4478 5.72578 15.8405C6.14222 15.2196 6.71251 14.6494 7.37275 14.1673C8.69064 13.2049 10.4958 12.5 12.5 12.5C14.5042 12.5 16.3094 13.2049 17.6273 14.1673C18.2875 14.6494 18.8578 15.2196 19.2742 15.8405C19.6816 16.4478 20 17.1936 20 18C20 18.8854 19.6151 19.6174 19.0152 20.1413C18.4676 20.6195 17.7803 20.895 17.1333 21.0696ZM12.5 10C14.1569 10 15.5 8.65685 15.5 7C15.5 5.34315 14.1569 4 12.5 4C10.8431 4 9.5 5.34315 9.5 7C9.5 8.65685 10.8431 10 12.5 10ZM12.5 20C15.8137 20 18.5 19.6569 18.5 18C18.5 16.3431 15.8137 14 12.5 14C9.18629 14 6.5 16.3431 6.5 18C6.5 19.6569 9.18629 20 12.5 20Z" fill="#C85C50"/>
</svg>
