<svg width="25" height="24" viewBox="0 0 25 24" fill="none" xmlns="http://www.w3.org/2000/svg">
<path d="M10.0064 4.83003C9.54738 4.39 8.80323 4.38999 8.34424 4.83002C7.88525 5.27005 7.88525 5.98348 8.34424 6.42351L14.1614 12.0005L8.34515 17.5765C7.88618 18.0166 7.88617 18.7299 8.34514 19.17C8.80412 19.61 9.54829 19.61 10.0073 19.17L16.6343 12.8167C16.6396 12.8118 16.6471 12.8049 16.6549 12.7975C16.7143 12.7404 16.7673 12.6774 16.8119 12.6111C17.1068 12.1744 17.0551 11.5855 16.6558 11.2026C16.6412 11.1887 16.626 11.1748 16.6101 11.1611L10.0064 4.83003Z" fill="#C85C50"/>
</svg>
