<svg width="25" height="24" viewBox="0 0 25 24" fill="none" xmlns="http://www.w3.org/2000/svg">
<path d="M14.9936 4.83003C15.4526 4.39 16.1968 4.38999 16.6558 4.83002C17.1147 5.27005 17.1147 5.98348 16.6558 6.42351L10.8386 12.0005L16.6549 17.5765C17.1138 18.0166 17.1138 18.7299 16.6549 19.17C16.1959 19.61 15.4517 19.61 14.9927 19.17L8.36568 12.8167C8.36039 12.8118 8.35288 12.8049 8.34508 12.7975C8.2857 12.7404 8.23274 12.6774 8.18811 12.6111C7.89323 12.1744 7.94486 11.5855 8.34423 11.2026C8.35875 11.1887 8.37396 11.1748 8.38989 11.1611L14.9936 4.83003Z" fill="#C85C50"/>
</svg>
