<svg width="25" height="24" viewBox="0 0 25 24" fill="none" xmlns="http://www.w3.org/2000/svg">
<path fill-rule="evenodd" clip-rule="evenodd" d="M8.83333 5.75C8.04325 5.75 7.38832 6.3287 7.26931 7.08535C6.19059 7.12538 5.2182 7.75936 4.74852 8.73787L3.79701 10.7202C2.85265 11.4993 2.25 12.6794 2.25 14C2.25 16.3472 4.15279 18.25 6.5 18.25C8.43771 18.25 10.0725 16.9532 10.584 15.1802C10.9803 15.8222 11.6902 16.25 12.5 16.25C13.3098 16.25 14.0197 15.8222 14.416 15.1802C14.9275 16.9532 16.5623 18.25 18.5 18.25C20.8472 18.25 22.75 16.3472 22.75 14C22.75 12.6794 22.1474 11.4993 21.203 10.7202L20.2515 8.73787C19.7661 7.72661 18.7438 7.08333 17.622 7.08333H17.0637C16.9438 6.32771 16.2893 5.75 15.5 5.75C14.7107 5.75 14.0562 6.32771 13.9363 7.08333H10.397C10.2772 6.32767 9.62272 5.75 8.83333 5.75ZM4.08333 14C4.08333 12.6653 5.16531 11.5833 6.5 11.5833C7.83469 11.5833 8.91667 12.6653 8.91667 14C8.91667 15.3347 7.83469 16.4167 6.5 16.4167C5.16531 16.4167 4.08333 15.3347 4.08333 14ZM16.0833 14C16.0833 12.6653 17.1653 11.5833 18.5 11.5833C19.8347 11.5833 20.9167 12.6653 20.9167 14C20.9167 15.3347 19.8347 16.4167 18.5 16.4167C17.1653 16.4167 16.0833 15.3347 16.0833 14ZM12.0833 14C12.0833 13.7699 12.2699 13.5833 12.5 13.5833C12.7301 13.5833 12.9167 13.7699 12.9167 14C12.9167 14.2301 12.7301 14.4167 12.5 14.4167C12.2699 14.4167 12.0833 14.2301 12.0833 14Z" fill="#C85C50"/>
</svg>
