<svg width="18" height="14" viewBox="0 0 18 14" fill="none" xmlns="http://www.w3.org/2000/svg">
<path fill-rule="evenodd" clip-rule="evenodd" d="M8.68648 3.30213C11.1736 3.30223 13.5656 4.22432 15.3681 5.8778C15.5038 6.00545 15.7208 6.00384 15.8545 5.87419L17.152 4.61072C17.2197 4.54496 17.2574 4.45588 17.2568 4.3632C17.2563 4.27052 17.2175 4.18187 17.149 4.11688C12.418 -0.257833 4.95424 -0.257833 0.223229 4.11688C0.154697 4.18183 0.115813 4.27044 0.115181 4.36313C0.114549 4.45581 0.152222 4.54491 0.219862 4.61072L1.51773 5.87419C1.65132 6.00404 1.86845 6.00565 2.0041 5.8778C3.80684 4.22421 6.19912 3.30212 8.68648 3.30213ZM8.68312 7.5224C10.0404 7.52232 11.3493 8.03406 12.3554 8.95819C12.4915 9.08934 12.7059 9.0865 12.8385 8.95178L14.1258 7.63247C14.1936 7.56327 14.2312 7.46939 14.2303 7.37184C14.2293 7.27429 14.1898 7.18121 14.1206 7.11342C11.0568 4.22257 6.31205 4.22257 3.24822 7.11342C3.17901 7.18121 3.13953 7.27434 3.13862 7.37192C3.13771 7.4695 3.17546 7.56337 3.24339 7.63247L4.5303 8.95178C4.66295 9.0865 4.87732 9.08934 5.0134 8.95819C6.01886 8.03467 7.3267 7.52297 8.68312 7.5224ZM11.2075 10.316C11.2095 10.4213 11.1724 10.5229 11.1051 10.5967L8.92844 13.0514C8.86464 13.1236 8.77764 13.1642 8.68687 13.1642C8.59611 13.1642 8.50911 13.1236 8.44531 13.0514L6.26828 10.5967C6.20103 10.5228 6.16403 10.4212 6.16602 10.3159C6.16802 10.2105 6.20883 10.1108 6.27881 10.0401C7.66891 8.72625 9.70484 8.72625 11.0949 10.0401C11.1649 10.1108 11.2056 10.2106 11.2075 10.316Z" fill="black"/>
</svg>
