<svg width="18" height="14" viewBox="0 0 18 14" fill="none" xmlns="http://www.w3.org/2000/svg">
<path fill-rule="evenodd" clip-rule="evenodd" d="M8.68648 3.30222C11.1736 3.30232 13.5656 4.22441 15.3681 5.87789C15.5038 6.00554 15.7208 6.00393 15.8545 5.87428L17.152 4.61081C17.2197 4.54505 17.2574 4.45597 17.2568 4.36329C17.2563 4.27061 17.2175 4.18197 17.149 4.11697C12.418 -0.257741 4.95424 -0.257741 0.223229 4.11697C0.154697 4.18192 0.115813 4.27054 0.115181 4.36322C0.114549 4.4559 0.152222 4.545 0.219862 4.61081L1.51773 5.87428C1.65132 6.00413 1.86845 6.00574 2.0041 5.87789C3.80684 4.2243 6.19912 3.30221 8.68648 3.30222ZM8.68312 7.5225C10.0404 7.52241 11.3493 8.03415 12.3554 8.95828C12.4915 9.08943 12.7059 9.08659 12.8385 8.95187L14.1258 7.63256C14.1936 7.56336 14.2312 7.46948 14.2303 7.37193C14.2293 7.27438 14.1898 7.1813 14.1206 7.11351C11.0568 4.22266 6.31205 4.22266 3.24822 7.11351C3.17901 7.1813 3.13953 7.27443 3.13862 7.37201C3.13771 7.46959 3.17546 7.56346 3.24339 7.63256L4.5303 8.95187C4.66295 9.08659 4.87732 9.08943 5.0134 8.95828C6.01886 8.03476 7.3267 7.52307 8.68312 7.5225ZM11.2075 10.316C11.2095 10.4214 11.1724 10.523 11.1051 10.5968L8.92844 13.0515C8.86464 13.1236 8.77764 13.1642 8.68687 13.1642C8.59611 13.1642 8.50911 13.1236 8.44531 13.0515L6.26828 10.5968C6.20103 10.5229 6.16403 10.4213 6.16602 10.316C6.16802 10.2106 6.20883 10.1108 6.27881 10.0402C7.66891 8.72634 9.70484 8.72634 11.0949 10.0402C11.1649 10.1109 11.2056 10.2107 11.2075 10.316Z" fill="black"/>
</svg>
