<svg width="18" height="14" viewBox="0 0 18 14" fill="none" xmlns="http://www.w3.org/2000/svg">
<path fill-rule="evenodd" clip-rule="evenodd" d="M8.68645 3.3021C11.1736 3.3022 13.5656 4.22428 15.3681 5.87776C15.5038 6.00542 15.7208 6.00381 15.8544 5.87415L17.1519 4.61069C17.2196 4.54493 17.2574 4.45585 17.2568 4.36317C17.2562 4.27049 17.2174 4.18184 17.1489 4.11685C12.4179 -0.257863 4.95421 -0.257863 0.223199 4.11685C0.154667 4.1818 0.115783 4.27041 0.115151 4.3631C0.114519 4.45578 0.152191 4.54488 0.219832 4.61069L1.5177 5.87415C1.65129 6.004 1.86842 6.00562 2.00407 5.87776C3.80681 4.22418 6.19909 3.30209 8.68645 3.3021ZM8.68309 7.52237C10.0404 7.52229 11.3493 8.03403 12.3554 8.95816C12.4915 9.08931 12.7059 9.08647 12.8385 8.95175L14.1258 7.63244C14.1936 7.56324 14.2312 7.46936 14.2302 7.37181C14.2292 7.27426 14.1898 7.18118 14.1206 7.11339C11.0568 4.22254 6.31202 4.22254 3.24819 7.11339C3.17898 7.18118 3.1395 7.27431 3.13859 7.37189C3.13768 7.46947 3.17543 7.56334 3.24336 7.63244L4.53027 8.95175C4.66292 9.08647 4.87729 9.08931 5.01337 8.95816C6.01882 8.03464 7.32667 7.52294 8.68309 7.52237ZM11.2075 10.3159C11.2094 10.4213 11.1724 10.5228 11.1051 10.5967L8.92841 13.0514C8.86461 13.1235 8.77761 13.1641 8.68684 13.1641C8.59608 13.1641 8.50908 13.1235 8.44528 13.0514L6.26825 10.5967C6.201 10.5228 6.164 10.4212 6.16599 10.3158C6.16799 10.2105 6.2088 10.1107 6.27878 10.0401C7.66888 8.72621 9.70481 8.72621 11.0949 10.0401C11.1648 10.1108 11.2056 10.2106 11.2075 10.3159Z" fill="black"/>
</svg>
